<svg width="300" height="300" viewBox="0 0 300 300" fill="none" xmlns="http://www.w3.org/2000/svg">
  <path d="M75 112.5C75 75 93.75 37.5 142.5 37.5C191.25 37.5 210 75 210 112.5C210 112.5 210 112.5 210 112.5C225 112.5 240 127.5 240 142.5C240 157.5 225 172.5 210 172.5H90C75 172.5 60 157.5 60 142.5C60 127.5 75 112.5 90 112.5C90 75 108.75 37.5 157.5 37.5C206.25 37.5 225 75 225 112.5C225 112.5 225 112.5 225 112.5C240 112.5 255 127.5 255 142.5C255 157.5 240 172.5 225 172.5H105C90 172.5 75 157.5 75 142.5C75 127.5 90 112.5 105 112.5Z" stroke="currentColor" stroke-width="3" stroke-linecap="round" stroke-linejoin="round"/>
</svg>
