<svg width="25" height="24" viewBox="0 0 25 24" fill="none" xmlns="http://www.w3.org/2000/svg">
<g id="more_vert_24px">
<path id="icon/navigation/more_vert_24px" d="M12.1123 16C13.2223 16.0001 14.1299 16.9001 14.1299 18C14.1299 19.0999 13.2223 19.9999 12.1123 20C11.0022 20 10.0938 19.1 10.0938 18C10.0938 16.9 11.0022 16 12.1123 16ZM12.1123 10C13.2223 10.0001 14.1299 10.9001 14.1299 12C14.1299 13.0999 13.2223 13.9999 12.1123 14C11.0022 14 10.0938 13.1 10.0938 12C10.0938 10.9 11.0022 10 12.1123 10ZM12.1123 4C13.2223 4.00013 14.1299 4.90008 14.1299 6C14.1299 7.09992 13.2223 7.99987 12.1123 8C11.0022 8 10.0938 7.1 10.0938 6C10.0938 4.9 11.0022 4 12.1123 4Z" fill="#9B9B9B"/>
</g>
</svg>
