<svg width="15" height="18" viewBox="0 0 15 18" fill="none" xmlns="http://www.w3.org/2000/svg">
<path d="M8.60512 0C8.83226 0 9.00699 0.189 9.00699 0.414V3.312C9.00699 4.959 10.3262 6.309 11.9249 6.318C12.5888 6.318 13.113 6.327 13.5149 6.327L13.6637 6.32633C13.9322 6.32425 14.2938 6.318 14.6069 6.318C14.8253 6.318 15 6.498 15 6.723V13.959C15 16.191 13.244 18 11.0775 18H4.12347C1.85207 18 0 16.101 0 13.761V4.059C0 1.827 1.76471 0 3.94001 0H8.60512ZM9.5399 11.61H4.78742C4.42924 11.61 4.13221 11.907 4.13221 12.276C4.13221 12.645 4.42924 12.951 4.78742 12.951H9.5399C9.89808 12.951 10.1951 12.645 10.1951 12.276C10.1951 11.907 9.89808 11.61 9.5399 11.61ZM7.74024 7.11H4.78742C4.42924 7.11 4.13221 7.416 4.13221 7.785C4.13221 8.154 4.42924 8.451 4.78742 8.451H7.74024C8.09843 8.451 8.39546 8.154 8.39546 7.785C8.39546 7.416 8.09843 7.11 7.74024 7.11ZM10.28 0.8154C10.28 0.4275 10.7369 0.2349 10.9981 0.5148C11.9425 1.5264 13.5928 3.2949 14.5153 4.2831C14.7704 4.5558 14.5835 5.0085 14.2157 5.0094C13.4976 5.0121 12.651 5.0094 12.0421 5.0031C11.0759 5.0031 10.28 4.1832 10.28 3.1878V0.8154Z" fill="black"/>
</svg>
