<svg width="24" height="24" viewBox="0 0 24 24" fill="none" xmlns="http://www.w3.org/2000/svg">
<path d="M14.0029 2C14.2528 2.00008 14.4632 2.17999 14.4932 2.41992L14.873 5.07031C15.4828 5.32025 16.0427 5.64997 16.5625 6.0498L19.0527 5.0498C19.1027 5.02983 19.1627 5.01954 19.2227 5.01953C19.4026 5.01953 19.5731 5.10967 19.6631 5.26953L21.6631 8.73047C21.7827 8.95035 21.7328 9.22022 21.543 9.37012L19.4326 11.0195C19.4726 11.3395 19.5029 11.66 19.5029 12C19.5029 12.34 19.4726 12.6605 19.4326 12.9805L21.543 14.6299C21.7328 14.7798 21.7827 15.0496 21.6631 15.2695L19.6631 18.7305C19.5731 18.8903 19.4023 18.9805 19.2324 18.9805C19.1725 18.9804 19.1126 18.9701 19.0527 18.9502L16.5625 17.9502C16.0427 18.34 15.4828 18.6797 14.873 18.9297L14.4932 21.5801C14.4632 21.82 14.2528 21.9999 14.0029 22H10.0029C9.75295 22 9.54273 21.82 9.5127 21.5801L9.13281 18.9297C8.52284 18.6797 7.96236 18.3502 7.44238 17.9502L4.95312 18.9502C4.90325 18.9701 4.84306 18.9804 4.7832 18.9805C4.60334 18.9805 4.43283 18.8902 4.34277 18.7305L2.34277 15.2695C2.22302 15.0496 2.27299 14.7798 2.46289 14.6299L4.57324 12.9805C4.53324 12.6605 4.50293 12.33 4.50293 12C4.50293 11.67 4.53324 11.3395 4.57324 11.0195L2.46289 9.37012C2.27299 9.2202 2.21304 8.95041 2.34277 8.73047L4.34277 5.26953C4.43277 5.10985 4.60269 5.01964 4.77246 5.01953C4.83246 5.01953 4.89313 5.0298 4.95312 5.0498L7.44238 6.0498C7.96236 5.65982 8.52284 5.32031 9.13281 5.07031L9.5127 2.41992C9.54273 2.17996 9.75295 2 10.0029 2H14.0029ZM11.1025 5.34961L10.9424 6.48047L9.88281 6.91016C9.47288 7.08013 9.06273 7.31973 8.63281 7.63965L7.73242 8.32031L6.69238 7.90039L5.42285 7.38965L4.72266 8.59961L5.80273 9.44043L6.69238 10.1396L6.55273 11.2695C6.52273 11.5695 6.50293 11.8 6.50293 12C6.50293 12.2 6.52273 12.4302 6.55273 12.7402L6.69238 13.8701L5.80273 14.5703L4.72266 15.4102L5.42285 16.6201L6.69238 16.1104L7.75293 15.6797L8.66309 16.3799C9.06297 16.6798 9.46271 16.9099 9.89258 17.0898L10.9531 17.5195L11.1123 18.6504L11.3027 20H12.7031L12.9023 18.6504L13.0625 17.5195L14.123 17.0898C14.5329 16.9199 14.9431 16.6803 15.373 16.3604L16.2725 15.6797L17.3125 16.0996L18.583 16.6104L19.2832 15.4004L18.2031 14.5596L17.3125 13.8604L17.4531 12.7305C17.4831 12.4305 17.5029 12.21 17.5029 12C17.5029 11.79 17.4931 11.5795 17.4531 11.2695L17.3125 10.1396L18.2031 9.44043L19.2725 8.58984L18.5732 7.37988L17.3027 7.88965L16.2432 8.32031L15.333 7.62012C14.933 7.32012 14.5325 7.09016 14.1025 6.91016L13.043 6.48047L12.8828 5.34961L12.6924 4H11.3027L11.1025 5.34961ZM12.0029 8C14.2129 8.00009 16.0029 9.79005 16.0029 12C16.0029 14.2099 14.2129 15.9999 12.0029 16C9.79293 16 8.00293 14.21 8.00293 12C8.00293 9.79 9.79293 8 12.0029 8ZM12.0029 10C10.9029 10 10.0029 10.9 10.0029 12C10.0029 13.1 10.9029 14 12.0029 14C13.1029 13.9999 14.0029 13.0999 14.0029 12C14.0029 10.9001 13.1029 10.0001 12.0029 10Z" fill="#9B9B9B"/>
</svg>
